<?xml version="1.0" encoding="utf-8"?>
<!-- Generator: Adobe Illustrator 26.0.1, SVG Export Plug-In . SVG Version: 6.00 Build 0)  -->
<svg version="1.1" id="Layer_1" xmlns="http://www.w3.org/2000/svg" xmlns:xlink="http://www.w3.org/1999/xlink" x="0px" y="0px"
	 viewBox="0 0 341.81 255.57" style="enable-background:new 0 0 341.81 255.57;" xml:space="preserve">
<style type="text/css">
	.st0{fill:url(#SVGID_1_);}
	.st1{fill:url(#SVGID_00000033354719539234410620000000432165728521670550_);}
	.st2{fill:url(#SVGID_00000129187076733587772360000001247533406727210419_);}
	.st3{fill:url(#SVGID_00000060016459528912640950000011111051714711626885_);}
	.st4{fill:url(#SVGID_00000026146551478568041230000017300080120967954056_);}
	.st5{fill:url(#SVGID_00000094594788296842592340000012808763464681719957_);}
</style>
<g>
	<linearGradient id="SVGID_1_" gradientUnits="userSpaceOnUse" x1="262.1917" y1="174.6988" x2="333.6882" y2="174.6988">
		<stop  offset="0" style="stop-color:#7D3825"/>
		<stop  offset="0.5393" style="stop-color:#4F0000"/>
		<stop  offset="1" style="stop-color:#2D0000"/>
	</linearGradient>
	<path class="st0" d="M282.89,154.1c-0.18-2.74-0.29-4.5-0.42-6.4c-6.92,0-13.5,0-20.28,0c0,18.11,0,35.96,0,53.85
		c6.96,0,13.56,0,20.21,0c0.21-2.01,0.38-3.74,0.64-6.22c16.98,11.07,33.47,21.82,50.65,33.01c0-36.04,0-71.23,0-107.28
		C316.52,132.23,299.96,143,282.89,154.1z"/>
	
		<linearGradient id="SVGID_00000078037648340224269850000006087552223641492123_" gradientUnits="userSpaceOnUse" x1="121.677" y1="49.8565" x2="203.9415" y2="49.8565">
		<stop  offset="0" style="stop-color:#7D3825"/>
		<stop  offset="0.5393" style="stop-color:#4F0000"/>
		<stop  offset="1" style="stop-color:#2D0000"/>
	</linearGradient>
	<path style="fill:url(#SVGID_00000078037648340224269850000006087552223641492123_);" d="M162.27,90.95
		c22.73,0.31,41.39-17.73,41.67-40.29c0.28-22.93-17.74-41.48-40.7-41.89c-22.3-0.4-41.18,17.73-41.56,39.93
		C121.28,72.28,138.9,90.63,162.27,90.95z M188.22,39.5c5.67,0.1,10.51,5.07,10.38,10.65c-0.13,5.61-5.16,10.43-10.77,10.33
		c-5.7-0.11-10.38-4.99-10.26-10.73C177.68,43.94,182.4,39.39,188.22,39.5z M162.63,14.04c5.49-0.1,10.53,4.9,10.59,10.51
		c0.06,5.61-4.85,10.68-10.39,10.72c-5.48,0.04-10.6-5.01-10.66-10.51C152.11,19.27,157.11,14.14,162.63,14.04z M162.64,64.76
		c5.82-0.06,10.52,4.52,10.59,10.32c0.07,5.79-4.57,10.49-10.37,10.51c-5.72,0.02-10.66-4.74-10.7-10.3
		C152.11,69.66,156.94,64.82,162.64,64.76z M126.98,50.05c-0.04-5.82,4.56-10.49,10.38-10.54c5.91-0.05,10.48,4.43,10.52,10.32
		c0.04,5.76-4.62,10.58-10.3,10.65C131.97,60.54,127.02,55.68,126.98,50.05z"/>
	
		<linearGradient id="SVGID_00000164483243957768839120000008308105515404079766_" gradientUnits="userSpaceOnUse" x1="28.7795" y1="49.8802" x2="110.9723" y2="49.8802">
		<stop  offset="0" style="stop-color:#7D3825"/>
		<stop  offset="0.5393" style="stop-color:#4F0000"/>
		<stop  offset="1" style="stop-color:#2D0000"/>
	</linearGradient>
	<path style="fill:url(#SVGID_00000164483243957768839120000008308105515404079766_);" d="M69.66,90.96
		c22.31,0.27,41.04-17.65,41.31-39.52c0.29-23.69-17.18-42.17-40.32-42.64C48.05,8.35,29,26.61,28.78,48.94
		C28.55,72.52,46.22,90.68,69.66,90.96z M95.52,39.52c5.75,0.17,10.39,5.09,10.16,10.77c-0.22,5.66-5.28,10.4-10.86,10.18
		c-5.75-0.23-10.27-5.11-10.08-10.88C84.94,43.71,89.61,39.35,95.52,39.52z M70,85.6c-5.89,0.05-10.96-4.97-10.75-10.65
		c0.2-5.63,5.05-10.24,10.73-10.21c5.61,0.03,10.52,4.89,10.55,10.44C80.56,80.67,75.63,85.55,70,85.6z M69.71,14.03
		c5.61-0.11,10.93,5.23,10.8,10.83c-0.13,5.48-5.26,10.46-10.71,10.42c-5.44-0.04-10.54-5.16-10.55-10.58
		C59.25,19.22,64.23,14.14,69.71,14.03z M34.05,49.7c0.15-5.73,4.89-10.27,10.66-10.22c5.75,0.05,10.38,4.71,10.38,10.45
		c0,5.69-4.72,10.49-10.37,10.55C38.94,60.55,33.9,55.45,34.05,49.7z"/>
	
		<linearGradient id="SVGID_00000097493884466055233790000013972848182605952647_" gradientUnits="userSpaceOnUse" x1="8.1199" y1="174.6896" x2="255.4503" y2="174.6896">
		<stop  offset="0" style="stop-color:#7D3825"/>
		<stop  offset="0.5393" style="stop-color:#4F0000"/>
		<stop  offset="1" style="stop-color:#2D0000"/>
	</linearGradient>
	<path style="fill:url(#SVGID_00000097493884466055233790000013972848182605952647_);" d="M237.41,102.58
		c-70.49-0.01-140.99-0.01-211.48,0c-11.88,0-17.78,5.89-17.79,17.83c-0.03,36.16-0.03,72.33,0,108.49
		c0.01,12,5.85,17.84,17.74,17.85c33.33,0.02,66.66,0.01,99.99,0.01c1.78,0,3.56,0,5.72,0c0-15.47,0-30.37,0-45.24
		c-21.32-5.54-31.1-19.65-25.61-36.79c4.9-15.3,21.83-23.41,36.59-17.52c16.25,6.49,21.81,23.31,13.48,41.46
		c12.43,8.34,24.91,16.72,38.01,25.51c-8.98,3.07-17.09,5.85-25.85,8.85c3.67,7.27,7,13.4,9.88,19.74c1.47,3.24,3.5,4.06,6.87,4.03
		c17.66-0.16,35.33-0.06,52.99-0.08c11.53-0.01,17.46-5.9,17.47-17.57c0.04-36.16,0.04-72.33,0-108.49
		C255.4,108.36,249.59,102.58,237.41,102.58z"/>
	
		<linearGradient id="SVGID_00000091723054925140001580000011986872142759662238_" gradientUnits="userSpaceOnUse" x1="110.5873" y1="172.8036" x2="154.2828" y2="172.8036">
		<stop  offset="0" style="stop-color:#7D3825"/>
		<stop  offset="0.5393" style="stop-color:#4F0000"/>
		<stop  offset="1" style="stop-color:#2D0000"/>
	</linearGradient>
	<path style="fill:url(#SVGID_00000091723054925140001580000011986872142759662238_);" d="M149.1,158.91
		c-7.06-8.03-18.51-9.98-27.6-4.72c-9.1,5.27-13.14,16.23-9.68,26.28c3.06,8.9,11.75,14.95,20.5,13.72c0-6.74,0-13.6,0-21.24
		c6.6,4.34,12.36,8.12,18.09,11.89C156.09,177.32,155.41,166.09,149.1,158.91z"/>
	
		<linearGradient id="SVGID_00000029733950680042189150000015584431251519598217_" gradientUnits="userSpaceOnUse" x1="132.4975" y1="238.7905" x2="161.7585" y2="238.7905">
		<stop  offset="0" style="stop-color:#7D3825"/>
		<stop  offset="0.5393" style="stop-color:#4F0000"/>
		<stop  offset="1" style="stop-color:#2D0000"/>
	</linearGradient>
	<path style="fill:url(#SVGID_00000029733950680042189150000015584431251519598217_);" d="M132.5,246.76c9.13,0,16.58,0,24.04,0
		c1.32,0,2.63,0,5.22,0c-3.08-5.76-5.64-10.57-8.5-15.93C146.19,236.25,139.92,241.06,132.5,246.76z"/>
</g>
</svg>
